<svg width="24" height="24" viewBox="0 0 24 24" fill="none" xmlns="http://www.w3.org/2000/svg">
<path d="M5.74996 7.94699C5.74996 7.48699 6.12396 7.11299 6.58396 7.11299H9.91696C10.138 7.11299 10.35 7.2008 10.5063 7.35712C10.6626 7.51343 10.7505 7.72543 10.7505 7.94649C10.7505 8.16755 10.6626 8.37955 10.5063 8.53586C10.35 8.69217 10.138 8.77999 9.91696 8.77999C9.8928 8.78005 9.86903 8.78603 9.84771 8.7974C9.8264 8.80876 9.80819 8.82518 9.79468 8.8452C9.78117 8.86522 9.77276 8.88825 9.7702 8.91226C9.76763 8.93628 9.77098 8.96056 9.77996 8.98299L9.87396 9.21499C9.89446 9.2645 9.93312 9.3043 9.98201 9.32624C10.0309 9.34818 10.0863 9.35059 10.137 9.33299L14.241 7.86999C14.2669 7.86072 14.2906 7.84641 14.311 7.82789C14.3313 7.80937 14.3478 7.787 14.3594 7.76207C14.371 7.73715 14.3776 7.71017 14.3787 7.68269C14.3798 7.65521 14.3755 7.62778 14.366 7.60199L14.299 7.42099C14.2382 7.2564 14.2128 7.08087 14.2244 6.90581C14.236 6.73076 14.2843 6.5601 14.3661 6.40493C14.448 6.24977 14.5616 6.11358 14.6996 6.00522C14.8376 5.89686 14.9968 5.81876 15.167 5.77599L17.293 5.24599C17.4007 5.2145 17.5138 5.2051 17.6253 5.21835C17.7368 5.23161 17.8445 5.26724 17.9419 5.32312C18.0393 5.379 18.1244 5.45397 18.1921 5.54354C18.2598 5.63311 18.3087 5.73543 18.336 5.84437C18.3632 5.95331 18.3681 6.06662 18.3505 6.17752C18.3328 6.28841 18.293 6.3946 18.2333 6.48972C18.1737 6.58485 18.0954 6.66694 18.0032 6.73108C17.9111 6.79522 17.8069 6.84008 17.697 6.86299L16.246 7.22499C16.2176 7.23204 16.191 7.24499 16.1679 7.26302C16.1449 7.28104 16.1259 7.30372 16.1122 7.32958C16.0985 7.35544 16.0904 7.38389 16.0885 7.41308C16.0866 7.44228 16.0908 7.47155 16.101 7.49899L17.151 10.351C17.1674 10.3957 17.1988 10.4335 17.2397 10.4578C17.2807 10.4822 17.3288 10.4918 17.376 10.485C17.527 10.461 17.68 10.449 17.833 10.447C18.8264 10.4427 19.7884 10.7951 20.5439 11.4401C21.2995 12.085 21.7985 12.9798 21.9502 13.9616C22.1019 14.9434 21.8962 15.947 21.3705 16.7899C20.8448 17.6329 20.0341 18.2592 19.0857 18.5549C18.1373 18.8506 17.1143 18.7962 16.2026 18.4014C15.291 18.0067 14.5513 17.2978 14.1181 16.4039C13.6848 15.5099 13.5869 14.4901 13.8419 13.5299C14.097 12.5698 14.6882 11.7331 15.508 11.172C15.5464 11.1459 15.5751 11.1078 15.5896 11.0636C15.6041 11.0195 15.6035 10.9718 15.588 10.928L15.353 10.293C15.3398 10.2579 15.3174 10.2269 15.2882 10.2033C15.259 10.1798 15.2241 10.1645 15.187 10.159C15.1497 10.1535 15.1116 10.1583 15.0768 10.1729C15.0421 10.1876 15.0121 10.2115 14.99 10.242L11.422 15.106C11.3445 15.2115 11.2433 15.2972 11.1266 15.3563C11.0098 15.4153 10.8808 15.4461 10.75 15.446H10.416C10.3692 15.4461 10.3238 15.4619 10.2872 15.4909C10.2505 15.52 10.2247 15.5605 10.214 15.606C10.0277 16.365 9.63181 17.0563 9.07142 17.601C8.51102 18.1457 7.80875 18.5219 7.04478 18.6865C6.28081 18.8511 5.48595 18.7976 4.75095 18.532C4.01596 18.2664 3.37046 17.7995 2.88817 17.1846C2.40587 16.5697 2.10623 15.8315 2.02345 15.0544C1.94066 14.2773 2.07808 13.4926 2.42001 12.7898C2.76194 12.0871 3.29459 11.4947 3.95715 11.0802C4.6197 10.6658 5.38545 10.446 6.16696 10.446C6.76996 10.45 7.36596 10.586 7.90996 10.848C7.99696 10.888 8.09996 10.864 8.15996 10.789L8.45096 10.425C8.47379 10.396 8.48858 10.3615 8.49385 10.325C8.49911 10.2885 8.49467 10.2512 8.48096 10.217L7.95096 8.90999C7.93541 8.87155 7.90873 8.83864 7.87434 8.81548C7.83995 8.79231 7.79942 8.77995 7.75796 8.77999H6.58396C6.47448 8.78012 6.36605 8.75867 6.26487 8.71687C6.16369 8.67507 6.07175 8.61373 5.99429 8.53636C5.91683 8.459 5.85539 8.36713 5.81346 8.266C5.77154 8.16487 5.74996 8.05647 5.74996 7.94699ZM3.68796 15.013C3.77235 15.5331 4.01891 16.0132 4.39245 16.3849C4.76598 16.7565 5.24738 17.0006 5.76791 17.0823C6.28844 17.1641 6.82149 17.0792 7.29094 16.84C7.76038 16.6007 8.14223 16.2192 8.38196 15.75C8.39823 15.7183 8.40609 15.6829 8.40478 15.6473C8.40346 15.6117 8.39302 15.577 8.37444 15.5466C8.35587 15.5162 8.3298 15.491 8.29872 15.4736C8.26764 15.4562 8.2326 15.447 8.19696 15.447H6.16696C5.9459 15.447 5.73389 15.3592 5.57758 15.2029C5.42127 15.0466 5.33346 14.8345 5.33346 14.6135C5.33346 14.3924 5.42127 14.1804 5.57758 14.0241C5.73389 13.8678 5.9459 13.78 6.16696 13.78H8.19696C8.2326 13.78 8.26764 13.7708 8.29872 13.7534C8.3298 13.7359 8.35587 13.7108 8.37444 13.6804C8.39302 13.65 8.40346 13.6153 8.40478 13.5797C8.40609 13.5441 8.39823 13.5087 8.38196 13.477C8.11081 12.9468 7.65931 12.5308 7.10871 12.3038C6.55812 12.0769 5.9446 12.054 5.37862 12.2392C4.81263 12.4244 4.33134 12.8056 4.0214 13.3141C3.71145 13.8226 3.59321 14.4251 3.68796 15.013ZM10.375 13.717L12.655 10.61C12.6806 10.5739 12.6942 10.5307 12.6938 10.4864C12.6933 10.4421 12.6787 10.3992 12.6523 10.3637C12.6258 10.3282 12.5888 10.3021 12.5465 10.289C12.5042 10.2759 12.4588 10.2766 12.417 10.291L10.057 11.131C10.0207 11.1444 9.98887 11.1676 9.96496 11.198L9.45696 11.833C9.428 11.8696 9.41224 11.9148 9.41224 11.9615C9.41224 12.0081 9.428 12.0534 9.45696 12.09C9.82696 12.56 10.091 13.105 10.23 13.687C10.234 13.7018 10.242 13.7152 10.2532 13.7257C10.2644 13.7362 10.2782 13.7434 10.2932 13.7465C10.3083 13.7496 10.3238 13.7485 10.3383 13.7433C10.3527 13.7381 10.3654 13.729 10.375 13.717ZM15.334 14.614C15.334 15.1084 15.4806 15.5918 15.7553 16.0029C16.03 16.414 16.4204 16.7345 16.8772 16.9237C17.3341 17.1129 17.8367 17.1624 18.3217 17.066C18.8066 16.9695 19.2521 16.7314 19.6017 16.3818C19.9514 16.0321 20.1895 15.5867 20.2859 15.1017C20.3824 14.6168 20.3329 14.1141 20.1437 13.6573C19.9544 13.2005 19.634 12.81 19.2229 12.5353C18.8118 12.2606 18.3284 12.114 17.834 12.114C17.8294 12.113 17.8247 12.1135 17.8204 12.1153C17.8161 12.1171 17.8125 12.1201 17.81 12.124C17.8085 12.1271 17.8078 12.1305 17.8078 12.134C17.8078 12.1374 17.8085 12.1409 17.81 12.144L18.613 14.325C18.6895 14.5323 18.6805 14.7614 18.5881 14.9621C18.4956 15.1628 18.3272 15.3185 18.12 15.395C17.9127 15.4715 17.6835 15.4625 17.4829 15.3701C17.2822 15.2776 17.1265 15.1093 17.05 14.902L16.348 12.999C16.3357 12.9657 16.3151 12.9361 16.2881 12.9131C16.2612 12.89 16.2288 12.8742 16.194 12.8672C16.1592 12.8602 16.1232 12.8622 16.0894 12.873C16.0556 12.8838 16.0252 12.9031 16.001 12.929C15.5728 13.3856 15.3344 13.988 15.334 14.614Z" fill="black"/>
</svg>
