<svg width="24" height="24" viewBox="0 0 24 24" fill="none" xmlns="http://www.w3.org/2000/svg">
<path d="M13.0231 14.155C14.9821 14.852 17.2001 15.642 17.2001 18.8V20C17.2001 20.0528 17.1897 20.105 17.1694 20.1538C17.1491 20.2025 17.1194 20.2467 17.0819 20.2839C17.0444 20.3211 17 20.3505 16.9511 20.3704C16.9022 20.3903 16.8499 20.4004 16.7971 20.4H3.19712C3.09103 20.4 2.98929 20.3579 2.91428 20.2828C2.83926 20.2078 2.79712 20.1061 2.79712 20V18.804C2.79712 15.636 5.00712 14.854 6.95712 14.164C7.16112 14.092 7.36512 14.019 7.56712 13.944C7.62012 13.922 7.69912 13.829 7.76012 13.624C7.89482 13.1074 7.87148 12.5622 7.69312 12.059C6.93812 11.229 6.19612 10.196 6.19612 7.636C6.15034 7.11419 6.21549 6.5886 6.38729 6.09375C6.55908 5.59891 6.83364 5.14602 7.19291 4.76483C7.55219 4.38364 7.98806 4.08279 8.47187 3.88203C8.95569 3.68127 9.47651 3.58516 10.0001 3.6C10.5235 3.58519 11.0442 3.68126 11.5278 3.88189C12.0115 4.08253 12.4473 4.3832 12.8065 4.76417C13.1658 5.14513 13.4404 5.59777 13.6123 6.09237C13.7842 6.58698 13.8496 7.11235 13.8041 7.634C13.8041 10.196 13.0621 11.226 12.3041 12.062C12.1281 12.564 12.1052 13.1069 12.2381 13.622C12.2991 13.829 12.3781 13.922 12.4321 13.942L13.0231 14.155Z" fill="black"/>
<path d="M18.294 15.52L18.746 15.68C20.27 16.22 22 16.837 22 19.318V20C22 20.1061 21.9579 20.2078 21.8829 20.2828C21.8079 20.3579 21.7061 20.4 21.6 20.4H18.59C18.5615 20.4001 18.5333 20.3941 18.5073 20.3824C18.4813 20.3707 18.4581 20.3536 18.4392 20.3322C18.4204 20.3108 18.4063 20.2856 18.398 20.2583C18.3897 20.231 18.3873 20.2023 18.391 20.174C18.399 20.117 18.403 20.058 18.403 20V18.8C18.403 15.118 15.87 13.925 13.923 13.205C13.898 13.1956 13.8751 13.1813 13.8557 13.1629C13.8363 13.1446 13.8208 13.1225 13.81 13.098C13.726 12.9069 13.6568 12.7097 13.603 12.508C13.5952 12.4782 13.5943 12.4471 13.6004 12.4169C13.6065 12.3868 13.6193 12.3584 13.638 12.334C14.5493 11.0963 15.0248 9.59157 14.99 8.055C14.9911 8.01738 15.0027 7.98082 15.0236 7.94951C15.0444 7.9182 15.0737 7.89341 15.108 7.878C15.5144 7.69565 15.9546 7.60092 16.4 7.6C16.8133 7.58797 17.2244 7.66355 17.6063 7.82179C17.9883 7.98003 18.3324 8.21733 18.6161 8.51809C18.8997 8.81885 19.1165 9.17625 19.2521 9.56679C19.3878 9.95733 19.4392 10.3722 19.403 10.784C19.4594 11.409 19.3842 12.0389 19.1824 12.6331C18.9805 13.2273 18.6564 13.7726 18.231 14.234C18.127 14.57 18.111 14.929 18.185 15.274C18.197 15.364 18.234 15.45 18.294 15.52Z" fill="black"/>
</svg>
