<svg width="24" height="24" viewBox="0 0 24 24" fill="none" xmlns="http://www.w3.org/2000/svg">
<path d="M21.333 10.772C21.5214 10.7336 21.6907 10.6314 21.8123 10.4825C21.9338 10.3336 22.0002 10.1472 22 9.95496V6.57996C22 5.88996 21.44 5.32996 20.75 5.32996H3.25C2.56 5.32996 2 5.88996 2 6.57996V9.95496C2 10.351 2.279 10.693 2.667 10.772C2.94957 10.8293 3.20362 10.9826 3.38609 11.2059C3.56857 11.4291 3.66825 11.7086 3.66825 11.997C3.66825 12.2853 3.56857 12.5648 3.38609 12.788C3.20362 13.0113 2.94957 13.1646 2.667 13.222C2.47879 13.2602 2.3096 13.3624 2.18805 13.5111C2.0665 13.6598 2.00007 13.8459 2 14.038V17.413C2 17.7445 2.1317 18.0624 2.36612 18.2968C2.60054 18.5313 2.91848 18.663 3.25 18.663H20.75C21.44 18.663 22 18.103 22 17.413V14.038C21.9999 13.8459 21.9335 13.6598 21.812 13.5111C21.6904 13.3624 21.5212 13.2602 21.333 13.222C21.0504 13.1646 20.7964 13.0113 20.6139 12.788C20.4314 12.5648 20.3317 12.2853 20.3317 11.997C20.3317 11.7086 20.4314 11.4291 20.6139 11.2059C20.7964 10.9826 21.0504 10.8293 21.333 10.772ZM6.83 16.816C6.60987 16.816 6.39876 16.7285 6.2431 16.5729C6.08745 16.4172 6 16.2061 6 15.986C6 15.7658 6.08745 15.5547 6.2431 15.3991C6.39876 15.2434 6.60987 15.156 6.83 15.156C7.05013 15.156 7.26124 15.2434 7.4169 15.3991C7.57255 15.5547 7.66 15.7658 7.66 15.986C7.66 16.2061 7.57255 16.4172 7.4169 16.5729C7.26124 16.7285 7.05013 16.816 6.83 16.816ZM7.66 13.326C7.66 13.5461 7.57255 13.7572 7.4169 13.9129C7.26124 14.0685 7.05013 14.156 6.83 14.156C6.60987 14.156 6.39876 14.0685 6.2431 13.9129C6.08745 13.7572 6 13.5461 6 13.326C6 13.1058 6.08745 12.8947 6.2431 12.7391C6.39876 12.5834 6.60987 12.496 6.83 12.496C7.05013 12.496 7.26124 12.5834 7.4169 12.7391C7.57255 12.8947 7.66 13.1058 7.66 13.326ZM6.83 11.496C6.60987 11.496 6.39876 11.4085 6.2431 11.2529C6.08745 11.0972 6 10.8861 6 10.666C6 10.4458 6.08745 10.2347 6.2431 10.0791C6.39876 9.9234 6.60987 9.83596 6.83 9.83596C7.05013 9.83596 7.26124 9.9234 7.4169 10.0791C7.57255 10.2347 7.66 10.4458 7.66 10.666C7.66 10.8861 7.57255 11.0972 7.4169 11.2529C7.26124 11.4085 7.05013 11.496 6.83 11.496ZM7.66 8.00596C7.66 8.22609 7.57255 8.4372 7.4169 8.59285C7.26124 8.74851 7.05013 8.83596 6.83 8.83596C6.60987 8.83596 6.39876 8.74851 6.2431 8.59285C6.08745 8.4372 6 8.22609 6 8.00596C6 7.78583 6.08745 7.57471 6.2431 7.41906C6.39876 7.2634 6.60987 7.17596 6.83 7.17596C7.05013 7.17596 7.26124 7.2634 7.4169 7.41906C7.57255 7.57471 7.66 7.78583 7.66 8.00596ZM9.5 10.64C9.5 10.531 9.52147 10.423 9.56318 10.3223C9.60489 10.2216 9.66603 10.1301 9.7431 10.0531C9.82017 9.97599 9.91167 9.91485 10.0124 9.87314C10.1131 9.83143 10.221 9.80996 10.33 9.80996H16.67C16.8901 9.80996 17.1012 9.8974 17.2569 10.0531C17.4126 10.2087 17.5 10.4198 17.5 10.64C17.5 10.8601 17.4126 11.0712 17.2569 11.2269C17.1012 11.3825 16.8901 11.47 16.67 11.47H10.33C10.1099 11.47 9.89876 11.3825 9.7431 11.2269C9.58745 11.0712 9.5 10.8601 9.5 10.64ZM10.33 12.47H13.67C13.8901 12.47 14.1012 12.5574 14.2569 12.7131C14.4126 12.8687 14.5 13.0798 14.5 13.3C14.5 13.5201 14.4126 13.7312 14.2569 13.8869C14.1012 14.0425 13.8901 14.13 13.67 14.13H10.33C10.1099 14.13 9.89876 14.0425 9.7431 13.8869C9.58745 13.7312 9.5 13.5201 9.5 13.3C9.5 13.0798 9.58745 12.8687 9.7431 12.7131C9.89876 12.5574 10.1099 12.47 10.33 12.47Z" fill="black"/>
</svg>
