<svg width="24" height="24" viewBox="0 0 24 24" fill="none" xmlns="http://www.w3.org/2000/svg">
<path d="M9.66703 6.566C10.2725 6.566 10.8532 6.32547 11.2814 5.89732C11.7095 5.46918 11.95 4.88849 11.95 4.283C11.95 3.67751 11.7095 3.09682 11.2814 2.66868C10.8532 2.24053 10.2725 2 9.66703 2C9.06154 2 8.48085 2.24053 8.05271 2.66868C7.62456 3.09682 7.38403 3.67751 7.38403 4.283C7.38403 4.88849 7.62456 5.46918 8.05271 5.89732C8.48085 6.32547 9.06154 6.566 9.66703 6.566ZM18.826 22C18.5663 22.0001 18.3121 21.9252 18.094 21.7844C17.8758 21.6435 17.7029 21.4427 17.596 21.206C17.0232 19.9341 16.4234 18.6745 15.797 17.428C15.433 16.709 15.122 16.592 14.937 16.576H13.501C10.734 16.852 9.84203 15.089 9.58403 14.314L9.53003 14.085L8.78503 9.048C8.73265 8.6938 8.82312 8.33331 9.03654 8.04581C9.24996 7.75832 9.56884 7.56738 9.92303 7.515C10.2772 7.46262 10.6377 7.55309 10.9252 7.76651C11.2127 7.97992 11.4037 8.2988 11.456 8.653L12.181 13.56C12.267 13.77 12.454 13.98 13.282 13.885L13.43 13.877H14.763C14.835 13.873 14.909 13.873 14.984 13.877L15.059 13.88C16.049 13.931 17.299 14.414 18.206 16.21C18.8497 17.4906 19.4665 18.7846 20.056 20.091C20.1497 20.2968 20.1901 20.5228 20.1736 20.7483C20.1571 20.9738 20.0843 21.1916 19.9618 21.3816C19.8392 21.5716 19.6709 21.7278 19.4723 21.8359C19.2737 21.9439 19.0521 22.0004 18.826 22Z" fill="black"/>
<path d="M9.75811 17.8H13.3201C13.8681 17.8 14.2331 18.164 14.2331 18.712C14.2331 19.26 13.8681 19.626 13.3201 19.626H9.75811C8.47911 19.626 7.38411 18.804 7.11011 17.526L5.64811 11.132C5.46611 10.676 5.83111 10.128 6.28811 10.037C6.74411 9.85398 7.29211 10.219 7.38411 10.676L8.84411 17.069C8.93611 17.525 9.30111 17.8 9.75811 17.8Z" fill="black"/>
</svg>
