<svg width="24" height="24" viewBox="0 0 24 24" fill="none" xmlns="http://www.w3.org/2000/svg">
<path d="M12 2.00001C13.3133 1.99852 14.6139 2.25651 15.8272 2.75916C17.0405 3.2618 18.1425 3.99921 19.07 4.92901C19.1451 4.99848 19.2053 5.08239 19.2472 5.1757C19.289 5.26902 19.3116 5.36983 19.3136 5.47208C19.3156 5.57434 19.2969 5.67595 19.2587 5.77081C19.2205 5.86567 19.1635 5.95185 19.0912 6.02417C19.0188 6.09649 18.9327 6.15347 18.8378 6.19169C18.7429 6.22992 18.6413 6.2486 18.5391 6.24662C18.4368 6.24465 18.336 6.22205 18.2427 6.18019C18.1494 6.13833 18.0655 6.07807 17.996 6.00301C17.2095 5.2144 16.2749 4.58905 15.2459 4.16293C14.2169 3.7368 13.1138 3.51831 12 3.52001C10.3228 3.52001 8.68329 4.01735 7.28876 4.94914C5.89424 5.88094 4.80733 7.20533 4.1655 8.75485C3.52367 10.3044 3.35574 12.0094 3.68294 13.6544C4.01014 15.2993 4.81779 16.8103 6.00373 17.9963C7.18968 19.1822 8.70068 19.9899 10.3456 20.3171C11.9906 20.6443 13.6956 20.4763 15.2452 19.8345C16.7947 19.1927 18.1191 18.1058 19.0509 16.7112C19.9827 15.3167 20.48 13.6772 20.48 12C20.48 11.7984 20.5601 11.6051 20.7026 11.4626C20.8451 11.3201 21.0384 11.24 21.24 11.24C21.4416 11.24 21.6349 11.3201 21.7774 11.4626C21.9199 11.6051 22 11.7984 22 12C22 17.523 17.523 22 12 22C6.477 22 2 17.523 2 12C2 6.47701 6.477 2.00001 12 2.00001Z" fill="black"/>
<path d="M12 5.69604C13.694 5.69604 15.283 6.36804 16.457 7.54204C16.5304 7.61194 16.589 7.69579 16.6295 7.78868C16.67 7.88156 16.6915 7.9816 16.6927 8.08292C16.694 8.18423 16.675 8.28477 16.6368 8.37863C16.5986 8.47248 16.5421 8.55775 16.4704 8.62943C16.3988 8.70111 16.3136 8.75775 16.2198 8.79601C16.126 8.83427 16.0255 8.85339 15.9241 8.85223C15.8228 8.85108 15.7228 8.82968 15.6298 8.78929C15.5369 8.7489 15.453 8.69034 15.383 8.61704C14.6005 7.83437 13.5707 7.34726 12.4693 7.23871C11.3678 7.13015 10.2628 7.40687 9.34246 8.02172C8.42215 8.63656 7.7435 9.55149 7.42214 10.6106C7.10078 11.6697 7.1566 12.8075 7.58008 13.8301C8.00356 14.8527 8.7685 15.6968 9.74457 16.2186C10.7206 16.7404 11.8474 16.9076 12.933 16.6918C14.0185 16.476 14.9957 15.8904 15.6979 15.0349C16.4001 14.1794 16.784 13.1068 16.784 12C16.784 11.7985 16.8641 11.6052 17.0066 11.4626C17.1492 11.3201 17.3425 11.24 17.544 11.24C17.7456 11.24 17.9389 11.3201 18.0814 11.4626C18.224 11.6052 18.304 11.7985 18.304 12C18.304 13.2469 17.9343 14.4657 17.2416 15.5024C16.5489 16.539 15.5644 17.347 14.4125 17.8242C13.2606 18.3013 11.9931 18.4262 10.7702 18.1829C9.54734 17.9397 8.42408 17.3393 7.54245 16.4576C6.66082 15.576 6.06042 14.4528 5.81718 13.2299C5.57394 12.007 5.69878 10.7395 6.17591 9.58761C6.65305 8.4357 7.46105 7.45115 8.49773 6.75846C9.53442 6.06577 10.7532 5.69604 12 5.69604Z" fill="black"/>
<path d="M12.0001 9.39197C11.6576 9.39197 11.3185 9.45943 11.0021 9.59049C10.6856 9.72155 10.3981 9.91366 10.156 10.1558C9.91378 10.398 9.72168 10.6855 9.59061 11.0019C9.45955 11.3183 9.39209 11.6575 9.39209 12C9.39209 12.3425 9.45955 12.6816 9.59061 12.998C9.72168 13.3144 9.91378 13.6019 10.156 13.8441C10.3981 14.0863 10.6856 14.2784 11.0021 14.4094C11.3185 14.5405 11.6576 14.608 12.0001 14.608C12.6918 14.608 13.3551 14.3332 13.8442 13.8441C14.3333 13.355 14.6081 12.6917 14.6081 12C14.6081 11.3083 14.3333 10.6449 13.8442 10.1558C13.3551 9.66674 12.6918 9.39197 12.0001 9.39197ZM12.0001 10.912C12.2886 10.912 12.5654 11.0266 12.7694 11.2306C12.9735 11.4347 13.0881 11.7114 13.0881 12C13.0881 12.2885 12.9735 12.5653 12.7694 12.7693C12.5654 12.9733 12.2886 13.088 12.0001 13.088C11.7115 13.088 11.4348 12.9733 11.2308 12.7693C11.0267 12.5653 10.9121 12.2885 10.9121 12C10.9121 11.7114 11.0267 11.4347 11.2308 11.2306C11.4348 11.0266 11.7115 10.912 12.0001 10.912Z" fill="black"/>
<path d="M19.2371 3.83502C19.3753 3.70234 19.5584 3.62672 19.7499 3.62329C19.9414 3.61986 20.1272 3.68888 20.27 3.81652C20.4128 3.94417 20.5022 4.12104 20.5202 4.31173C20.5382 4.50243 20.4835 4.69289 20.3671 4.84501L20.2981 4.92201L13.8311 11.232C13.693 11.3647 13.5098 11.4403 13.3183 11.4437C13.1268 11.4472 12.941 11.3782 12.7982 11.2505C12.6554 11.1229 12.566 10.946 12.548 10.7553C12.53 10.5646 12.5847 10.3741 12.7011 10.222L12.7711 10.145L19.2371 3.83502Z" fill="black"/>
</svg>
