<svg width="24" height="24" viewBox="0 0 24 24" fill="none" xmlns="http://www.w3.org/2000/svg">
<path d="M2.32798 6.69995C7.67398 1.36695 16.326 1.36695 21.672 6.69995C21.7761 6.80408 21.8586 6.9277 21.9149 7.06374C21.9712 7.19978 22.0001 7.34557 22.0001 7.4928C22.0001 7.64003 21.971 7.7858 21.9146 7.92181C21.8582 8.05781 21.7756 8.18137 21.6715 8.28545C21.5673 8.38952 21.4437 8.47206 21.3077 8.52836C21.1717 8.58466 21.0259 8.61361 20.8786 8.61356C20.7314 8.61352 20.5856 8.58447 20.4496 8.52809C20.3136 8.4717 20.1901 8.38908 20.086 8.28495C15.616 3.82695 8.38298 3.82695 3.91398 8.28495C3.70367 8.49526 3.41842 8.61342 3.12098 8.61342C2.82355 8.61342 2.5383 8.49526 2.32798 8.28495C2.11767 8.07463 1.99951 7.78938 1.99951 7.49195C1.99951 7.19451 2.11767 6.91026 2.32798 6.69995Z" fill="black"/>
<path d="M4.88005 11.705C4.672 11.4972 4.55393 11.216 4.55131 10.9219C4.5487 10.6279 4.66173 10.3445 4.86605 10.133C8.80905 6.20305 15.1881 6.20305 19.1311 10.133C19.3411 10.343 19.4601 10.628 19.4591 10.925V10.951C19.4539 11.17 19.3845 11.3827 19.2597 11.5627C19.1349 11.7427 18.96 11.8821 18.7567 11.9638C18.5535 12.0454 18.3307 12.0656 18.1161 12.022C17.9014 11.9783 17.7043 11.8726 17.5491 11.718C16.076 10.2492 14.0807 9.42442 12.0006 9.42442C9.92037 9.42442 7.92506 10.2492 6.45205 11.718C6.01205 12.143 5.31205 12.138 4.88005 11.705Z" fill="black"/>
<path d="M14.137 12.031C12.9837 11.6287 11.7404 11.5593 10.5494 11.8308C9.35848 12.1022 8.26806 12.7036 7.40301 13.566C7.29189 13.6683 7.2026 13.7921 7.14052 13.9298C7.07844 14.0676 7.04484 14.2164 7.04174 14.3675C7.03864 14.5185 7.06611 14.6686 7.12249 14.8088C7.17887 14.949 7.26301 15.0763 7.36984 15.1831C7.47667 15.29 7.60399 15.3741 7.74416 15.4305C7.88433 15.4869 8.03444 15.5143 8.18549 15.5112C8.33654 15.5081 8.48541 15.4745 8.62314 15.4125C8.76088 15.3504 8.88465 15.2611 8.98701 15.15C9.75985 14.3825 10.7974 13.9403 11.8863 13.9145C12.9752 13.8886 14.0326 14.281 14.841 15.011C14.867 15.034 14.894 15.055 14.921 15.076C14.952 15.1 14.983 15.124 15.011 15.15C15.1413 15.2802 15.3018 15.3763 15.4781 15.4296C15.6545 15.4829 15.8413 15.4919 16.022 15.4557C16.2026 15.4195 16.3715 15.3392 16.5137 15.222C16.6559 15.1048 16.767 14.9544 16.837 14.784C17.01 14.364 16.914 13.883 16.594 13.562C15.9016 12.8723 15.0614 12.3481 14.137 12.031ZM14.242 19.06C14.242 19.6546 14.0058 20.2248 13.5853 20.6453C13.1649 21.0658 12.5946 21.302 12 21.302C11.4054 21.302 10.8351 21.0658 10.4147 20.6453C9.99422 20.2248 9.75801 19.6546 9.75801 19.06C9.75801 18.4653 9.99422 17.8951 10.4147 17.4746C10.8351 17.0542 11.4054 16.818 12 16.818C12.5946 16.818 13.1649 17.0542 13.5853 17.4746C14.0058 17.8951 14.242 18.4653 14.242 19.06Z" fill="black"/>
</svg>
